<?xml version="1.0" encoding="utf-8"?>
<!-- Generator: Adobe Illustrator 19.0.0, SVG Export Plug-In . SVG Version: 6.00 Build 0)  -->
<svg version="1.1" id="Layer_1" xmlns="http://www.w3.org/2000/svg" xmlns:xlink="http://www.w3.org/1999/xlink" x="0px" y="0px"
	 viewBox="2000 0 500 500" style="enable-background:new 2000 0 500 500;" xml:space="preserve">
<style type="text/css">
	.st0{fill:#161614;}
</style>
<g>
	<path class="st0" d="M2249.6,0C2111.8,0,2000,114.8,2000,256.3c0,113.3,71.5,209.3,170.7,243.2c12.5,2.4,17.1-5.6,17.1-12.3
		c0-6.1-0.2-26.3-0.3-47.7c-69.4,15.5-84.1-30.2-84.1-30.2c-11.4-29.6-27.7-37.5-27.7-37.5c-22.6-15.9,1.7-15.6,1.7-15.6
		c25.1,1.8,38.3,26.4,38.3,26.4c22.3,39.2,58.4,27.9,72.6,21.3c2.2-16.6,8.7-27.9,15.8-34.3c-55.4-6.5-113.7-28.5-113.7-126.7
		c0-28,9.8-50.9,25.7-68.8c-2.6-6.5-11.1-32.5,2.4-67.8c0,0,21-6.9,68.7,26.3c19.9-5.7,41.3-8.5,62.5-8.6
		c21.2,0.1,42.6,2.9,62.5,8.6c47.6-33.2,68.6-26.3,68.6-26.3c13.6,35.3,5,61.4,2.4,67.8c16,18,25.7,40.8,25.7,68.8
		c0,98.5-58.4,120.1-114,126.5c9,8,16.9,23.6,16.9,47.5c0,34.3-0.3,61.9-0.3,70.3c0,6.8,4.5,14.8,17.1,12.3
		c99.1-33.9,170.5-130,170.5-243.2C2499.2,114.8,2387.4,0,2249.6,0"/>
	<path class="st0" d="M2093.5,365.1c-0.5,1.3-2.5,1.7-4.3,0.8c-1.8-0.8-2.8-2.6-2.2-3.9c0.5-1.3,2.5-1.7,4.3-0.8
		C2093.1,362.1,2094.1,363.9,2093.5,365.1 M2105.8,376.4c-1.2,1.1-3.5,0.6-5.1-1.2c-1.6-1.8-1.9-4.2-0.7-5.3
		c1.2-1.1,3.5-0.6,5.1,1.2C2106.7,372.9,2107,375.3,2105.8,376.4 M2114.2,390.8c-1.5,1.1-4,0.1-5.6-2.2c-1.5-2.3-1.5-5,0-6.1
		c1.6-1.1,4-0.1,5.6,2.2C2115.7,386.9,2115.7,389.7,2114.2,390.8 M2128.4,407.5c-1.4,1.5-4.3,1.1-6.4-1c-2.2-2.1-2.8-5-1.4-6.5
		c1.4-1.6,4.3-1.1,6.5,1C2129.2,403,2129.9,405.9,2128.4,407.5 M2146.8,413.1c-0.6,2-3.4,2.9-6.2,2.1c-2.8-0.9-4.7-3.2-4.1-5.3
		c0.6-2,3.4-3,6.3-2.1C2145.6,408.7,2147.4,411,2146.8,413.1 M2167.8,415.5c0.1,2.1-2.3,3.9-5.3,3.9c-3,0.1-5.4-1.6-5.4-3.7
		c0-2.1,2.3-3.9,5.3-3.9C2165.4,411.7,2167.8,413.4,2167.8,415.5 M2188.4,414.7c0.4,2.1-1.7,4.2-4.7,4.7c-2.9,0.5-5.6-0.7-5.9-2.8
		c-0.4-2.1,1.7-4.2,4.6-4.8C2185.4,411.3,2188,412.6,2188.4,414.7"/>
</g>
</svg>
