<?xml version="1.0" encoding="utf-8"?>
<!-- Generator: Adobe Illustrator 19.0.0, SVG Export Plug-In . SVG Version: 6.00 Build 0)  -->
<svg version="1.1" id="Layer_1" xmlns="http://www.w3.org/2000/svg" xmlns:xlink="http://www.w3.org/1999/xlink" x="0px" y="0px"
	 viewBox="0 0 500 500" style="enable-background:new 0 0 500 500;" xml:space="preserve">
<style type="text/css">
	.st0{fill:#DC4E41;}
	.st1{fill:#FFFFFF;}
</style>
<circle class="st0" cx="250" cy="250" r="250"/>
<g id="XMLID_3_">
	<path id="XMLID_2_" class="st1" d="M184.2,233.5V273h65.3c-2.6,17-19.7,49.7-65.3,49.7c-39.3,0-71.4-32.6-71.4-72.7
		s32.1-72.7,71.4-72.7c22.4,0,37.4,9.5,45.9,17.8l31.3-30.1c-20.1-18.8-46.1-30.1-77.2-30.1C120.5,134.8,69,186.3,69,250
		s51.5,115.2,115.2,115.2c66.5,0,110.6-46.7,110.6-112.6c0-7.6-0.8-13.3-1.8-19.1L184.2,233.5L184.2,233.5z"/>
	<path id="XMLID_1_" class="st1" d="M431,233.5h-32.9v-32.9h-32.9v32.9h-32.9v32.9h32.9v32.9h32.9v-32.9H431"/>
</g>
</svg>
