<?xml version="1.0" encoding="utf-8"?>
<!-- Generator: Adobe Illustrator 19.0.0, SVG Export Plug-In . SVG Version: 6.00 Build 0)  -->
<svg version="1.1" xmlns="http://www.w3.org/2000/svg" xmlns:xlink="http://www.w3.org/1999/xlink" x="0px" y="0px"
	 viewBox="2000 0 500 500" style="enable-background:new 2000 0 500 500;" xml:space="preserve">
<style type="text/css">
	.st0{fill:#FFFFFF;}
	.st1{fill:url(#SVGID_1_);}
</style>
<g id="Layer_2">
	<rect x="2100" y="83" class="st0" width="313" height="315"/>
</g>
<g id="Layer_1">
	
		<linearGradient id="SVGID_1_" gradientUnits="userSpaceOnUse" x1="965.7802" y1="-747.0349" x2="1036.2012" y2="-817.4559" gradientTransform="matrix(5.0206 0 0 -5.0206 -2775.5491 -3677.321)">
		<stop  offset="0" style="stop-color:#2489BE"/>
		<stop  offset="1" style="stop-color:#0575B3"/>
	</linearGradient>
	<path class="st1" d="M2250,0c-138.1,0-250,111.9-250,250s111.9,250,250,250s250-111.9,250-250C2500,111.9,2388.1,0,2250,0z
		 M2183.3,370.9h-54.9V193.5h54.9V370.9z M2155.6,170.3c-17.9,0-32.5-14.7-32.5-32.7c0-18.1,14.5-32.7,32.5-32.7
		s32.5,14.7,32.5,32.7C2188.1,155.7,2173.5,170.3,2155.6,170.3z M2389,370.9h-54.6v-93.1c0-25.5-9.7-39.8-29.9-39.8
		c-22,0-33.4,14.8-33.4,39.8v93.1h-52.6V193.5h52.6v23.9c0,0,15.8-29.3,53.4-29.3c37.6,0,64.5,23,64.5,70.5L2389,370.9L2389,370.9z"
		/>
</g>
</svg>
